<svg xmlns="http://www.w3.org/2000/svg" width="430" height="430" fill="none" viewBox="0 0 430 430"><path fill="url(#P7RWz07pqsa)" d="M200.404 237.8a9.002 9.002 0 0 0-14.4 7.2v90a9 9 0 0 0 14.4 7.2l60-45a9 9 0 0 0 0-14.4z"/><path fill="url(#bAxMZszjfEb)" fill-rule="evenodd" d="m204.608 129.232 67.066-17.971q.137-.031.275-.069l67.615-18.117q.137-.037.273-.078l26.589-7.125a9.003 9.003 0 0 0 6.364-11.022l-7.765-28.978c-4.145-15.47-20.047-24.651-35.517-20.506l-270.46 72.47c-15.47 4.145-24.651 20.046-20.506 35.517l7.462 27.847V350c0 16.016 12.984 29 29 29h280c16.016 0 29-12.984 29-29V160a9 9 0 0 0-9-9H123.367l13.077-3.504q.138-.033.275-.069l67.615-18.118.086-.023.026-.007zm143.03-78.701c-1.572-5.868-7.604-9.35-13.472-7.779l-34.857 9.34L338.5 74.72l14.574-3.905zM164.079 88.327l43.026-11.529 39.192 22.628-43.026 11.529zM366.004 201v-32h-17.272l-32 32zm0 18v131c0 6.075-4.925 11-11 11h-280c-6.075 0-11-4.925-11-11V219zm-144.728-18 32-32h-44.544l-32 32zm-140 0 32-32H64.004v32zm-9.4-87.967 39.191 22.628-49.703 13.318-5.435-20.285c-1.573-5.868 1.91-11.9 7.778-13.472z" clip-rule="evenodd"/><defs><linearGradient id="P7RWz07pqsa" x1="150.881" x2="340.606" y1="103.125" y2="311.902" gradientUnits="userSpaceOnUse"><stop stop-color="#f9be1a"/><stop offset="1" stop-color="#f9be1a"/></linearGradient><linearGradient id="bAxMZszjfEb" x1="150.881" x2="340.606" y1="103.125" y2="311.902" gradientUnits="userSpaceOnUse"><stop stop-color="#f9be1a"/><stop offset="1" stop-color="#f9be1a"/></linearGradient></defs></svg>