<svg xmlns="http://www.w3.org/2000/svg" width="430" height="430" fill="none" viewBox="0 0 430 430"><path fill="url(#J7DBAez2VDa)" d="M198.596 240.2a6 6 0 0 0-9.6 4.8v90a6 6 0 0 0 9.6 4.8l60-45a6 6 0 0 0 0-9.6z"/><path fill="url(#0KKGoGxj5gb)" fill-rule="evenodd" d="m203.751 126.354 67.211-18.009q.102-.024.202-.051l67.615-18.117q.102-.027.201-.058l26.665-7.144a6 6 0 0 0 4.242-7.349l-7.764-28.978c-3.717-13.87-17.973-22.1-31.844-18.384L59.82 100.733c-13.87 3.716-22.101 17.973-18.385 31.843l7.561 28.217V350c0 14.359 11.64 26 26 26h280c14.359 0 26-11.641 26-26V160a6 6 0 0 0-6-6H100.575l35.157-9.42.103-.025.1-.026 67.615-18.117zm146.781-76.6c-2.002-7.468-9.678-11.9-17.147-9.9L291.529 51.07l46.541 26.87 18.673-5.004zM156.3 87.304l51.222-13.724 46.541 26.87-51.223 13.725zM368.996 204v-38h-21.514l-38 38zm-146.485 0 38-38h-53.029l-38 38zm-140 0 38-38H60.996v38zm-21.515 12h308v134c0 7.732-6.268 14-14 14h-280c-7.732 0-14-6.268-14-14zm11.297-106.186 46.54 26.87-59.595 15.969-6.212-23.182c-2-7.469 2.431-15.146 9.9-17.147z" clip-rule="evenodd"/><defs><linearGradient id="J7DBAez2VDa" x1="151.913" x2="338.435" y1="104.793" y2="309.961" gradientUnits="userSpaceOnUse"><stop stop-color="#f9be1a"/><stop offset="1" stop-color="#f9be1a"/></linearGradient><linearGradient id="0KKGoGxj5gb" x1="151.913" x2="338.435" y1="104.793" y2="309.961" gradientUnits="userSpaceOnUse"><stop stop-color="#f9be1a"/><stop offset="1" stop-color="#f9be1a"/></linearGradient></defs></svg>