<svg xmlns="http://www.w3.org/2000/svg" width="430" height="430" style="width:100%;height:100%;transform:translate3d(0,0,0);content-visibility:visible" viewBox="0 0 430 430"><defs><clipPath id="j"><path d="M0 0h430v430H0z"/></clipPath><clipPath id="q"><path d="M0 0h430v430H0z"/></clipPath><clipPath id="f"><path d="M0 0h430v430H0z"/></clipPath><clipPath id="n"><path d="M0 0h430v430H0z"/></clipPath><clipPath id="h"><path d="M0 0h430v430H0z"/></clipPath><clipPath id="k"><path d="M0 0h430v430H0z"/></clipPath><clipPath id="i"><path d="M0 0h430v430H0z"/></clipPath><filter id="r" width="300%" height="300%" x="-100%" y="-100%"><feGaussianBlur result="filter_result_0"/></filter><filter id="p" width="300%" height="300%" x="-100%" y="-100%"><feGaussianBlur result="filter_result_0" stdDeviation="52.5 52.5"/></filter><filter id="l" width="300%" height="300%" x="-100%" y="-100%"><feGaussianBlur result="filter_result_0"/></filter><mask id="s" mask-type="alpha"><use xmlns:ns1="http://www.w3.org/1999/xlink" ns1:href="#a"/></mask><mask id="o" mask-type="alpha"><use xmlns:ns2="http://www.w3.org/1999/xlink" ns2:href="#b"/></mask><mask id="m" mask-type="alpha"><use xmlns:ns3="http://www.w3.org/1999/xlink" ns3:href="#d"/></mask><g id="a" clip-path="url(#f)" style="display:none"><g style="display:none"><path/><path fill-opacity="0" stroke-linejoin="round" class="secondary"/></g><g fill-opacity="0" stroke-linecap="round" stroke-linejoin="round" style="display:none"><path class="secondary"/><path class="primary"/><path class="primary"/></g><g fill-opacity="0" stroke-linecap="round" stroke-linejoin="round" style="display:none"><path class="secondary"/><path class="primary"/></g><g style="display:none"><path/><path/></g><path style="display:none"/></g><g id="b" clip-path="url(#h)" style="display:block"><path fill="red" d="m73.25 104.25 61.75 35 66-18.5-60-35-68.5 18m135.5-37L268.25 103l68.5-17.5-60-35.25L208 66.5" style="display:block"/><g fill-opacity="0" stroke-linecap="round" stroke-linejoin="round" stroke-width="12" style="display:block"><path stroke="#08A88A" d="m72.983 103.342 61.18 35.456m6.465-53.462 61.179 35.456m6.465-53.462 61.18 35.456m6.465-53.462 61.18 35.455" class="secondary"/><path stroke="#121331" d="M61.207 106.474c-10.674 2.841-17.024 13.797-14.182 24.471l7.717 28.99 309.232-82.314-7.717-28.99c-2.841-10.675-13.797-17.025-24.472-14.183z" class="primary"/></g><path fill="red" d="M134 160.25 86 210l69.5.25 48.25-50.5h-67.5m208.5.75-70.651-.056-47.349 49.306 68 1 50.25-50.5" style="display:block"/><g fill-opacity="0" stroke-linecap="round" stroke-linejoin="round" stroke-width="12" style="display:block"><path stroke="#08A88A" d="m345 160-50 50m-20-50-50 50m-20-50-50 50m-20-50-50 50" class="secondary"/><path stroke="#121331" d="M375 160H55v190c0 11.046 8.954 20 20 20h280c11.046 0 20-8.954 20-20zM55 210h320" class="primary"/></g><g style="display:block"><path fill="red" d="m255 290-60-45v90z"/><path fill-opacity="0" stroke="#08A88A" stroke-linejoin="round" stroke-width="12" d="m255 290-60-45v90z" class="secondary"/></g></g><g id="d" clip-path="url(#i)" style="display:none"><g style="display:none"><path/><path/></g><g fill-opacity="0" stroke-linecap="round" stroke-linejoin="round" style="display:none"><path class="secondary"/><path class="primary"/></g><g fill-opacity="0" stroke-linecap="round" stroke-linejoin="round" style="display:none"><path class="secondary"/><path class="primary"/><path class="primary"/></g><g style="display:none"><path/><path fill-opacity="0" stroke-linejoin="round" class="secondary"/></g><path style="display:none"/></g></defs><g clip-path="url(#j)"><g clip-path="url(#k)" filter="url(#l)" mask="url(#m)" style="display:none"><g class="design"><path class="primary"/></g><g class="design"><path class="secondary"/></g></g><g clip-path="url(#n)" mask="url(#o)" style="display:block"><g filter="url(#p)" transform="rotate(-94 238.762 -16.565)scale(2.4)"><g class="design"><path fill="#4BE1EC" d="M0-250c137.975 0 250 112.025 250 250S137.975 250 0 250-250 137.975-250 0-137.975-250 0-250" class="primary"/></g><g class="design"><path fill="#CB5EEE" d="M113.242-295.384c97.478 0 176.5 79.022 176.5 176.5s-79.022 176.5-176.5 176.5c-43.948 0-74.396-34.057-105.29-60.631-37.631-32.369-71.21-62.338-71.21-115.869 0-97.478 79.022-176.5 176.5-176.5" class="secondary"/></g></g></g><g clip-path="url(#q)" filter="url(#r)" mask="url(#s)" style="display:none"><g class="design"><path class="primary"/></g><g class="design"><path class="secondary"/></g></g></g></svg>